# xmcd CD database file
#
# Track frame offsets:
#	150
#	2762
#	24692
#	27255
#	32755
#	37037
#	41535
#	61715
#	71507
#	100105
#	102892
#	112547
#	130600
#	140302
#	148085
#	161102
#	168292
#	183460
#	190565
#	195655
#
# Disc length: 3008 seconds
#
# Revision: 0
# Processed by: cddbd v1.5.2PL0 Copyright (c) Steve Scherf et al.
# Submitted via: CDex 1.51
#
DISCID=010bbe14
DTITLE=Day and Taxi - Out
DYEAR=2004
DGENRE=Jazz
TTITLE0=Ara
TTITLE1=Lost
TTITLE2=Boat
TTITLE3=New Music
TTITLE4=Do Re Mi Ma Do
TTITLE5=Strong Six
TTITLE6=U E I O Anne
TTITLE7=Walter's Year of the Years
TTITLE8=Love
TTITLE9=Calypso
TTITLE10=Double Mind
TTITLE11=Joy
TTITLE12=Go
TTITLE13=Wolke
TTITLE14=Trust
TTITLE15=Claudia and Ernst im Ernst
TTITLE16=Run
TTITLE17=Curtains Dream
TTITLE18=Africa
TTITLE19=Hearts
EXTD=YEAR: 2004
EXTT0=
EXTT1=
EXTT2=
EXTT3=
EXTT4=
EXTT5=
EXTT6=
EXTT7=
EXTT8=
EXTT9=
EXTT10=
EXTT11=
EXTT12=
EXTT13=
EXTT14=
EXTT15=
EXTT16=
EXTT17=
EXTT18=
EXTT19=
PLAYORDER=
